<svg width="22" height="23" viewBox="0 0 22 23" fill="none" xmlns="http://www.w3.org/2000/svg">
<path fill-rule="evenodd" clip-rule="evenodd" d="M11.8456 0.0112009C11.7748 0.0294547 11.5838 0.188741 11.4026 0.380592C11.1317 0.667362 10.9962 0.870673 10.8652 1.18663C10.7796 1.39306 10.68 1.67812 10.6602 1.77362C10.6524 1.8112 10.6327 1.89328 10.6164 1.956C10.6001 2.01873 10.5739 2.1549 10.5583 2.25861C10.5426 2.36231 10.5218 2.48669 10.512 2.53501C10.5022 2.58333 10.4889 2.70632 10.4824 2.80833C10.4759 2.91034 10.4624 3.05529 10.4523 3.13046C10.4423 3.20562 10.4342 3.55635 10.4343 3.90985C10.4345 4.51248 10.4577 4.98651 10.5119 5.49272C10.5566 5.91048 10.5682 6.01251 10.5955 6.22482C10.6315 6.50441 10.7015 6.91483 10.7851 7.3368C10.8009 7.41688 10.8207 7.5267 10.829 7.58084C10.8373 7.63497 10.8618 7.75394 10.8833 7.84521C10.9049 7.93648 10.93 8.05069 10.9392 8.09901C10.9483 8.14733 10.974 8.25714 10.9963 8.34304C11.0186 8.42894 11.0518 8.56951 11.0701 8.65541C11.0883 8.74131 11.1217 8.87748 11.1443 8.95801C11.1668 9.03854 11.1985 9.15714 11.2145 9.22157C11.2306 9.286 11.2542 9.36067 11.2669 9.38751C11.2796 9.41436 11.3012 9.49663 11.315 9.57035L11.34 9.70439L11.2683 9.84366C11.1833 10.0089 11.161 10.0368 11.1256 10.0223C11.1109 10.0163 11.0444 9.9362 10.9776 9.84431C10.8133 9.61802 10.7564 9.54461 10.539 9.27856C10.4363 9.15291 10.3103 8.99532 10.259 8.92834C10.1148 8.74031 9.83809 8.39353 9.75357 8.29504C9.71172 8.24629 9.6213 8.13171 9.55262 8.04044C9.37671 7.80662 9.16424 7.53911 8.98883 7.33063C8.90625 7.23247 8.8261 7.13306 8.81074 7.10971C8.75158 7.01981 8.08535 6.22628 7.87929 6.00031C7.81077 5.92515 7.69256 5.79337 7.61662 5.70747C7.54069 5.62157 7.44056 5.50851 7.39414 5.45625C7.22678 5.26783 6.68998 4.76243 6.47907 4.59467C6.42505 4.55172 6.35888 4.49559 6.33198 4.46992C6.28602 4.42609 6.18429 4.3513 6.00555 4.22994C5.68951 4.01541 5.32972 3.83617 5.00444 3.73125C4.89045 3.69447 4.81748 3.67469 4.62645 3.62872C4.4945 3.59697 4.15412 3.56972 3.88964 3.56972C3.60575 3.56972 3.55839 3.58506 3.4911 3.69896C3.41033 3.83566 3.42353 4.37459 3.5152 4.68252C3.59102 4.93721 3.82227 5.47413 3.8936 5.56105C3.90681 5.57715 3.94024 5.63426 3.96787 5.68794C3.99552 5.74163 4.04295 5.8207 4.0733 5.86365C4.10363 5.9066 4.15097 5.97688 4.17848 6.01983C4.20598 6.06278 4.25399 6.12973 4.28514 6.16861C4.31629 6.20748 4.38799 6.30211 4.44446 6.37887C4.90032 6.99863 5.82376 8.00024 6.51297 8.62255C6.87535 8.94973 7.36372 9.36299 7.683 9.61263C7.9455 9.81788 7.9324 9.80745 7.9875 9.85487C8.01123 9.87529 8.07829 9.92564 8.13651 9.96676C8.19475 10.0079 8.25934 10.058 8.28004 10.0781C8.30074 10.0982 8.40053 10.1729 8.50177 10.244C8.83745 10.48 8.92992 10.553 8.90969 10.566C8.90088 10.5717 8.61286 10.5856 8.26968 10.5968C7.48747 10.6223 6.98776 10.6707 6.23641 10.7937C5.62169 10.8943 4.77686 11.1179 4.22046 11.3271C3.66634 11.5356 3.54292 11.5905 3.07249 11.8384C2.70031 12.0345 2.55674 12.1188 2.24627 12.3237C2.13063 12.3999 2.00772 12.4799 1.97313 12.5014C1.90147 12.5459 1.76653 12.6476 1.47995 12.873C0.980086 13.2663 0.572846 13.678 0.314152 14.0517C0.00494633 14.4984 -0.0610573 14.6946 0.0510518 14.8339C0.145951 14.9519 0.541935 15.1188 0.953879 15.2145C1.03088 15.2324 1.12747 15.2551 1.16854 15.2649C1.24658 15.2835 1.39638 15.3041 1.75653 15.3455C2.24011 15.4011 3.46745 15.3621 3.9778 15.2748C4.06507 15.2599 4.19106 15.2424 4.25779 15.236C4.50581 15.212 5.39494 15.0409 5.83509 14.9324C5.96855 14.8995 6.13348 14.8599 6.2016 14.8445C6.26971 14.829 6.35791 14.8036 6.39759 14.7881C6.43728 14.7726 6.53273 14.7446 6.60973 14.7258C6.68673 14.7071 6.86313 14.6571 7.00172 14.6147C7.14032 14.5724 7.28508 14.5298 7.3234 14.5201C7.3617 14.5104 7.4247 14.4904 7.46339 14.4757C7.50207 14.4609 7.60931 14.4253 7.7017 14.3965C7.7941 14.3676 7.88258 14.3369 7.89832 14.3281C7.91405 14.3194 7.95605 14.3057 7.99165 14.2977C8.02724 14.2897 8.06476 14.2764 8.07503 14.268C8.08529 14.2596 8.13149 14.2415 8.17769 14.2278C8.22389 14.214 8.27009 14.1967 8.28036 14.1893C8.29062 14.1819 8.39142 14.1442 8.50435 14.1055C8.61728 14.0668 8.81888 13.9944 8.95234 13.9446C9.0858 13.8948 9.219 13.8494 9.24835 13.8438C9.29748 13.8345 9.30061 13.8373 9.28779 13.8801C9.28012 13.9057 9.22384 14.0364 9.16269 14.1706C9.10156 14.3048 9.03622 14.4542 9.01752 14.5025C8.9988 14.5508 8.91902 14.7397 8.84023 14.9222C8.65874 15.3427 8.40605 15.9646 8.12244 16.689C8.10351 16.7374 8.06622 16.8307 8.03954 16.8965C8.01285 16.9622 7.99103 17.0241 7.99103 17.034C7.99103 17.0438 7.9564 17.1393 7.91409 17.2463C7.87177 17.3532 7.82625 17.4758 7.81294 17.5188C7.79963 17.5617 7.76653 17.6584 7.73939 17.7335C7.71225 17.8087 7.67451 17.9185 7.65551 17.9775C7.6365 18.0366 7.58172 18.1991 7.53376 18.3387C7.42951 18.6421 7.47529 18.5128 7.39687 18.7913C7.36514 18.9041 7.32365 19.0358 7.30466 19.0842C7.28568 19.1325 7.2521 19.2379 7.23 19.3184C7.20792 19.399 7.30969 18.9529 7.29016 19.0053C7.27064 19.0577 7.25466 19.1159 7.25466 19.1345C7.25466 19.1531 7.2384 19.2112 7.21854 19.2637C7.19866 19.3161 7.13087 19.5303 7.06787 19.7397C7.00487 19.9491 6.93758 20.1643 6.91833 20.218C6.89907 20.2717 6.86528 20.3815 6.84322 20.462C6.82116 20.5426 6.7862 20.6612 6.76553 20.7256C6.71558 20.8813 6.67722 21.0207 6.65807 21.116C6.64945 21.159 6.62884 21.2556 6.6123 21.3308C6.58044 21.4756 6.5326 21.8386 6.51977 22.0329C6.51556 22.0969 6.51867 22.2865 6.52672 22.4542C6.5387 22.7041 6.54833 22.7734 6.58016 22.8386C6.63899 22.9593 6.6996 23 6.82028 23C7.01637 23 7.73093 22.836 8.01064 22.7268C8.06197 22.7067 8.15437 22.6711 8.21597 22.6476C8.56355 22.5151 9.08845 22.2653 9.26128 22.1502C9.31261 22.116 9.40222 22.056 9.46043 22.0169C9.51865 21.9778 9.57324 21.9456 9.58176 21.9453C9.60492 21.9447 10.1187 21.5716 10.1946 21.5003C10.2151 21.481 10.2655 21.4398 10.3066 21.4087C10.4275 21.3171 10.665 21.0935 10.8866 20.8628C11.0639 20.6781 11.1565 20.5659 11.3619 20.2863C11.4725 20.1359 11.624 19.8739 11.7345 19.6421C11.9607 19.1672 12.1381 18.7811 12.2663 18.2509C12.2987 18.1166 12.3369 17.9629 12.3511 17.9092C12.3653 17.8555 12.4021 17.693 12.4329 17.548C12.4637 17.4031 12.5007 17.2362 12.5153 17.1771C12.5298 17.1181 12.5636 16.9511 12.5902 16.8062C12.6169 16.6612 12.6468 16.4987 12.6567 16.445C12.7135 16.1375 12.8594 15.1731 12.9093 14.7758C12.9355 14.5664 12.9632 14.3474 12.9706 14.2892C12.9781 14.2309 12.9941 14.1799 13.0061 14.1758C13.0181 14.1717 13.0545 14.2238 13.087 14.2915C13.1759 14.4771 13.3347 14.7748 13.3962 14.8713C13.4263 14.9184 13.4626 14.9799 13.4769 15.0079C13.5409 15.133 13.9069 15.707 13.9979 15.825C14.033 15.8705 14.0923 15.9515 14.1296 16.005C14.2447 16.1699 14.6341 16.6286 14.86 16.8655C15.1876 17.2089 15.4379 17.4419 15.7268 17.6723C15.7789 17.7139 15.8467 17.7724 15.8775 17.8024C15.9262 17.8498 16.2212 18.0807 16.4056 18.2157C16.4394 18.2404 16.4968 18.2844 16.5332 18.3135C16.6098 18.3748 17.1755 18.7464 17.3182 18.8292C17.3715 18.8601 17.4906 18.9318 17.5831 18.9887C17.7671 19.1017 18.2652 19.3557 18.4721 19.4419C18.544 19.4719 18.6742 19.5289 18.7614 19.5687C18.9291 19.6451 19.0477 19.6784 19.0961 19.6625C19.2175 19.6229 19.3033 19.5017 19.302 19.3717C19.2997 19.135 18.6475 18.0066 18.1701 17.4132C18.1477 17.3853 18.084 17.304 18.0286 17.2324C17.8473 16.9982 17.3834 16.4628 17.0441 16.0965C16.7509 15.7797 16.2733 15.2878 16.139 15.1642C16.0878 15.117 15.9576 14.9905 15.8497 14.883C15.4429 14.4779 15.3138 14.3522 15.1876 14.2386C15.1162 14.1744 15.0028 14.069 14.9356 14.0045C14.8685 13.94 14.7148 13.7959 14.5942 13.6843C14.3517 13.46 14.3235 13.4199 14.4436 13.4703C14.4725 13.4824 14.5256 13.4995 14.5615 13.5084C14.5975 13.5172 14.6857 13.5463 14.7575 13.573C14.8853 13.6205 15.1115 13.6862 15.4108 13.7626C15.493 13.7836 15.6106 13.814 15.6722 13.8303C15.8376 13.8739 16.2824 13.955 16.4748 13.9767C16.5672 13.9871 16.6874 14.005 16.7419 14.0164C17.0313 14.0771 18.538 14.0944 19.0555 14.0429C19.2262 14.026 19.3718 14.0083 19.379 14.0036C19.3862 13.999 19.4917 13.982 19.6134 13.9659C19.8874 13.9297 20.0274 13.9053 20.2547 13.8543C20.3522 13.8324 20.4614 13.8079 20.4974 13.7999C20.8606 13.7185 21.4928 13.4899 21.7915 13.332C21.9574 13.2443 22 13.1864 22 13.0482C22 12.9309 21.966 12.8784 21.832 12.7881C21.6139 12.6413 20.9293 12.3512 20.5534 12.2463C20.4258 12.2107 20.4233 12.21 20.264 12.1601C20.1922 12.1376 20.0807 12.1068 20.0164 12.0916C19.9521 12.0764 19.8928 12.0597 19.8847 12.0545C19.8766 12.0493 19.7906 12.0271 19.6936 12.0053C19.5967 11.9835 19.467 11.9534 19.4054 11.9383C18.7125 11.7689 17.9678 11.6084 17.5761 11.5439C17.5351 11.5371 17.3545 11.5021 17.1748 11.466C16.9951 11.43 16.7599 11.3866 16.6521 11.3695C16.5443 11.3525 16.3805 11.3255 16.2881 11.3097C16.0709 11.2724 15.5046 11.1824 15.4202 11.1718C15.3546 11.1636 15.1463 11.1323 15.0328 11.1137C14.9995 11.1082 14.9724 11.0932 14.9726 11.0802C14.9729 11.0673 15.1136 10.9579 15.2853 10.837C15.6953 10.5485 16.2239 10.1515 16.2788 10.0909C16.2839 10.0852 16.3553 10.0236 16.4375 9.95395C16.722 9.71269 16.9319 9.50791 17.3179 9.09467C17.4935 8.90677 17.6777 8.70031 17.7272 8.63589C17.7767 8.57146 17.8219 8.51436 17.8277 8.50899C17.8335 8.50362 17.9265 8.37623 18.0342 8.22591C18.3635 7.76661 18.5414 7.46661 18.7808 6.96669C18.997 6.51534 19.2023 5.97727 19.3209 5.55128C19.3751 5.35672 19.4489 5.03409 19.4615 4.93632C19.4691 4.87726 19.4821 4.81028 19.4904 4.78747C19.4986 4.76467 19.5243 4.61532 19.5475 4.45559C19.6275 3.90366 19.5982 2.88416 19.4931 2.5665C19.4582 2.46112 19.3816 2.38654 19.2882 2.367C19.1971 2.34794 18.5379 2.49159 18.424 2.55531C18.4056 2.56562 18.3778 2.57406 18.3621 2.57406C18.3319 2.57406 18.0442 2.69969 17.8042 2.81766C17.3845 3.02404 16.6232 3.52054 16.2042 3.86116C15.9873 4.03741 15.7638 4.22287 15.7562 4.23289C15.751 4.23959 15.6922 4.28853 15.6255 4.34165C15.4992 4.44217 15.3046 4.61364 15.0655 4.83497C14.9885 4.90627 14.7081 5.19105 14.4424 5.4678C14.1767 5.74458 13.9536 5.97102 13.9467 5.97102C13.9398 5.97102 13.9151 5.67012 13.8919 5.30237C13.8509 4.65521 13.8288 4.43591 13.7712 4.1066C13.7385 3.91967 13.6738 3.60615 13.6484 3.51115C13.6383 3.47357 13.5954 3.29786 13.553 3.1207C13.4492 2.68659 13.2774 2.11082 13.1438 1.74902C12.9915 1.33645 12.8549 1.06291 12.616 0.692312C12.4947 0.504093 12.1165 0.0672119 12.0379 0.0244569C11.988 -0.00264072 11.918 -0.00746287 11.8456 0.0112009ZM11.7548 0.823232C11.62 0.965358 11.5008 1.14477 11.3991 1.35843C11.3521 1.45724 11.3136 1.54579 11.3136 1.55524C11.3136 1.56467 11.3005 1.59999 11.2844 1.63372C11.2535 1.6984 11.1924 1.90575 11.1655 2.03718C11.1566 2.08013 11.1324 2.19881 11.1115 2.30093C11.0243 2.72813 10.9903 3.18006 10.9887 3.93089C10.9874 4.61276 11.0006 4.89791 11.0623 5.51224C11.0915 5.8034 11.1539 6.288 11.1829 6.44933C11.1926 6.50302 11.2101 6.60844 11.222 6.68361C11.2338 6.75877 11.2725 6.96962 11.3081 7.15215C11.3436 7.33469 11.3887 7.5675 11.4081 7.66951C11.4665 7.97533 11.4807 8.04399 11.5111 8.16695C11.5271 8.23159 11.5573 8.35476 11.5782 8.44066C11.5991 8.52656 11.6278 8.63637 11.6418 8.68469C11.6559 8.73301 11.6766 8.81809 11.6878 8.87377C11.699 8.92943 11.7191 8.98447 11.7324 8.99604C11.758 9.01826 11.8088 8.94567 12.0905 8.4839C12.1611 8.36811 12.2746 8.1959 12.3428 8.10122C12.4109 8.00653 12.5159 7.85445 12.5761 7.76326C12.7363 7.52071 13.0356 7.11352 13.2642 6.8271L13.3762 6.68683L13.3738 6.11905C13.371 5.49264 13.342 4.89879 13.3016 4.64347C13.2872 4.5522 13.2619 4.38089 13.2454 4.26278C13.2289 4.14467 13.2082 4.01728 13.1995 3.9797C13.1907 3.94212 13.1734 3.86305 13.161 3.80399C13.1486 3.74494 13.1181 3.62194 13.0931 3.53067C13.0681 3.4394 13.0265 3.28127 13.0007 3.17926C12.8813 2.70748 12.7453 2.2591 12.5905 1.82688C12.5506 1.71546 12.3589 1.31954 12.3259 1.28053C12.3099 1.26168 12.2878 1.22937 12.2766 1.20875C12.1733 1.01813 11.936 0.719391 11.8879 0.719391C11.8689 0.719391 11.809 0.766128 11.7548 0.823232ZM18.8454 3.02763C18.4016 3.14147 17.7958 3.43743 17.2588 3.80288C17.1869 3.85179 17.1141 3.90059 17.0969 3.91135C17.066 3.9307 16.7955 4.12477 16.6335 4.24384C16.4521 4.37712 16.1508 4.62501 15.9728 4.78722C15.9123 4.84237 15.8451 4.89977 15.8235 4.91476C15.8019 4.92976 15.7758 4.95172 15.7655 4.96357C15.7552 4.97542 15.684 5.04223 15.6072 5.11202C15.5304 5.18181 15.3876 5.31863 15.2898 5.41605C15.1921 5.51347 15.0492 5.65403 14.9722 5.72841C14.8952 5.8028 14.7734 5.92985 14.7015 6.01077C14.6297 6.09169 14.4651 6.27619 14.3359 6.42075C14.047 6.74403 13.9338 6.87758 13.9109 6.92245C13.9012 6.94141 13.8836 7.0931 13.8717 7.25953C13.847 7.60655 13.7921 8.12617 13.7397 8.50899C13.7199 8.65395 13.6695 9.0361 13.6278 9.35823C13.5861 9.68036 13.5388 10.0362 13.5228 10.1489C13.5068 10.2616 13.4903 10.3846 13.486 10.4222C13.4818 10.4598 13.4701 10.5477 13.46 10.6175C13.4286 10.8343 13.4264 10.8891 13.4484 10.9074C13.4698 10.9254 13.5821 10.9394 13.8709 10.9602L14.0295 10.9716L14.2162 10.8547C14.3189 10.7903 14.4827 10.6883 14.5802 10.6278C14.7839 10.5016 14.8529 10.4554 15.0685 10.3008C15.1541 10.2394 15.2863 10.1449 15.3622 10.0908C15.6041 9.9184 15.8902 9.6941 16.0082 9.58434C16.0287 9.56523 16.1087 9.49337 16.1859 9.42463C16.6067 9.05024 17.1666 8.45058 17.4601 8.05996C17.4884 8.02238 17.528 7.96967 17.5482 7.94283C17.7226 7.71129 17.9681 7.32833 18.077 7.11816C18.1119 7.05097 18.1682 6.94326 18.2021 6.87883C18.6085 6.10825 18.8768 5.25756 19.0179 4.29189C19.0581 4.01728 19.0634 3.12165 19.0253 3.04748C19.0009 2.99999 18.9676 2.99632 18.8454 3.02763ZM4.00037 4.27432C4.00983 4.42292 4.04759 4.57936 4.11539 4.75085C4.17876 4.91111 4.31999 5.19203 4.39874 5.31449C4.43928 5.37751 4.49631 5.46976 4.52547 5.51948C4.82922 6.0374 5.74403 7.10706 6.4795 7.80427C6.59732 7.91598 6.76933 8.07958 6.86173 8.16783C6.95412 8.25609 7.08012 8.37059 7.14172 8.42229C7.20332 8.474 7.2833 8.54321 7.31948 8.57609C7.5423 8.77868 7.98735 9.14036 8.38302 9.4404C8.49082 9.52214 8.62521 9.62485 8.68168 9.66864C8.81542 9.77239 8.97888 9.88978 9.23233 10.0641C9.34526 10.1418 9.46286 10.2238 9.49366 10.2463C9.52446 10.2688 9.65129 10.3563 9.77554 10.4407L10.0014 10.5942L10.4149 10.6085C10.7651 10.6206 10.8283 10.6186 10.8283 10.5952C10.8283 10.5652 10.7134 10.3948 10.6196 10.2856C10.5873 10.248 10.4259 10.0415 10.261 9.82678C10.096 9.61203 9.84326 9.29125 9.69934 9.11392C9.55542 8.9366 9.40871 8.75211 9.37334 8.70394C9.33796 8.65578 9.27497 8.57621 9.23334 8.52711C9.19171 8.47803 9.14499 8.42092 9.1295 8.40021C9.08242 8.33727 8.82972 8.01969 8.71022 7.87325C8.64832 7.7974 8.55148 7.67568 8.49502 7.60276C8.43855 7.52982 8.37975 7.45478 8.36435 7.43596C8.34895 7.41716 8.29856 7.35527 8.25236 7.29842C8.20616 7.24159 8.07176 7.0807 7.9537 6.94092C7.02918 5.84627 6.43123 5.24247 5.88175 4.84868C5.82529 4.80821 5.76229 4.75983 5.74175 4.74117C5.68958 4.69375 5.29013 4.45742 5.15944 4.39665C4.90652 4.27906 4.45299 4.1647 4.14781 4.14156L3.99118 4.12969L4.00037 4.27432ZM13.179 7.86534C13.1437 7.91128 13.0939 7.98123 13.0682 8.02076C12.9677 8.17566 12.8775 8.31204 12.7517 8.49923C12.4014 9.02082 11.9669 9.73328 11.9669 9.78621C11.9669 9.82623 12.0772 10.2358 12.1146 10.3344C12.1413 10.405 12.1751 10.5082 12.2125 10.6332C12.2328 10.7009 12.2593 10.7598 12.2714 10.7641C12.3315 10.7852 12.8501 10.8337 12.863 10.8194C12.8905 10.7888 12.9544 10.3748 13.0132 9.8463C13.0227 9.7604 13.0391 9.65302 13.0495 9.60767C13.06 9.56234 13.0811 9.40421 13.0965 9.25626C13.1118 9.10834 13.1329 8.94776 13.1434 8.89944C13.1806 8.72716 13.2722 7.86433 13.2576 7.82313C13.244 7.78459 13.2387 7.78743 13.179 7.86534ZM11.5449 10.5282C11.533 10.5606 11.5663 10.6175 11.5971 10.6175C11.623 10.6175 11.607 10.5145 11.5796 10.5051C11.5668 10.5007 11.5511 10.5111 11.5449 10.5282ZM7.88837 11.1843C7.37773 11.2118 6.94938 11.2617 6.30004 11.3694C6.07157 11.4073 5.56521 11.5127 5.5432 11.5269C5.53428 11.5327 5.48711 11.5448 5.43837 11.5539C5.29886 11.5798 4.99061 11.6644 4.82711 11.7216C4.74498 11.7504 4.65258 11.7808 4.62178 11.7892C4.54523 11.8102 4.29012 11.9079 4.26713 11.9251C4.25686 11.9328 4.20226 11.9543 4.1458 11.973C4.00645 12.019 3.50683 12.2464 3.29649 12.3595C3.09672 12.4669 2.72519 12.69 2.57586 12.7922C2.49572 12.847 2.3374 12.9534 2.224 13.0285C2.11062 13.1037 2.01785 13.1718 2.01785 13.1798C2.01785 13.1879 2.00958 13.1945 1.99945 13.1945C1.98112 13.1945 1.7088 13.4099 1.51386 13.5787C1.35337 13.7176 1.02879 14.0508 0.92588 14.1822C0.759284 14.3949 0.745751 14.414 0.727608 14.4619C0.699758 14.5355 0.718443 14.5558 0.854892 14.6001C1.30669 14.7468 2.17959 14.8194 2.9962 14.7783C3.80544 14.7375 4.91363 14.5751 5.60176 14.3964C5.65822 14.3818 5.83462 14.3375 5.99375 14.2981C6.15288 14.2586 6.34187 14.2099 6.41374 14.1898C6.4856 14.1697 6.6284 14.1301 6.73106 14.1018C6.83373 14.0735 6.96812 14.0344 7.02972 14.0148C7.09132 13.9953 7.21732 13.9553 7.30971 13.9261C7.58075 13.8402 8.59236 13.4878 8.6565 13.457C8.68885 13.4415 8.72245 13.4288 8.73116 13.4288C8.73988 13.4289 8.83521 13.3931 8.94301 13.3495C9.0508 13.3057 9.181 13.254 9.23233 13.2344C9.28366 13.2149 9.37606 13.1797 9.43766 13.1563C9.66434 13.07 9.65126 13.0847 9.80867 12.7392C9.88785 12.5655 9.97347 12.3838 9.99891 12.3355C10.0244 12.2871 10.1165 12.0991 10.2036 11.9175C10.2906 11.736 10.3698 11.5776 10.3794 11.5655C10.4007 11.5386 10.3798 11.5001 10.3275 11.4698C10.306 11.4574 10.2145 11.402 10.1243 11.3469C9.79359 11.1446 9.91634 11.1636 8.96709 11.1676C8.50724 11.1696 8.02183 11.1771 7.88837 11.1843ZM11.1643 11.2869C11.1643 11.3169 11.5065 11.5036 11.5401 11.4918C11.552 11.4877 11.525 11.4377 11.4785 11.378C11.3958 11.2718 11.3952 11.2714 11.2799 11.2656C11.1911 11.2612 11.1643 11.2661 11.1643 11.2869ZM12.4896 11.4154C12.4896 11.4355 12.516 11.5145 12.5484 11.5911C12.615 11.7489 12.643 11.762 12.7309 11.6766C12.777 11.6317 12.787 11.6052 12.7918 11.5158C12.7975 11.4108 12.7965 11.4084 12.7416 11.3961C12.7108 11.3891 12.6415 11.3824 12.5876 11.3811C12.5035 11.3792 12.4896 11.384 12.4896 11.4154ZM14.0109 11.6435C13.9493 11.6833 13.7589 11.789 13.5878 11.8785C13.4167 11.9679 13.2717 12.0495 13.2657 12.0597C13.2596 12.0699 13.2495 12.1429 13.2431 12.2219C13.2294 12.3909 13.2257 12.3858 13.4229 12.462C13.4999 12.4918 13.6721 12.5624 13.8055 12.619C13.939 12.6756 14.1112 12.7458 14.1882 12.7751C14.2652 12.8043 14.345 12.8353 14.3655 12.8441C14.3861 12.8529 14.5373 12.9048 14.7015 12.9595C14.8658 13.0142 15.017 13.0667 15.0375 13.0763C15.058 13.0857 15.1126 13.1034 15.1588 13.1155C15.205 13.1275 15.3226 13.1594 15.4202 13.1863C16.0307 13.3545 16.5869 13.4448 17.276 13.4877C17.6527 13.511 18.5625 13.5099 18.7894 13.4857C18.8715 13.477 19.0467 13.4602 19.1786 13.4485C19.4996 13.4199 20.2595 13.2821 20.4694 13.2144C20.5002 13.2045 20.6245 13.1645 20.7458 13.1255C20.8791 13.0827 20.9634 13.0459 20.9591 13.0325C20.9405 12.9743 20.1538 12.7071 19.6496 12.5878C19.558 12.5662 19.477 12.5445 19.4696 12.5397C19.4579 12.5321 19.0756 12.4354 18.8921 12.3936C18.8307 12.3796 18.2357 12.2591 17.8841 12.1894C17.7968 12.1721 17.6708 12.1456 17.6041 12.1306C17.4255 12.0904 17.1031 12.0272 17.0068 12.0134C16.9245 12.0017 16.3963 11.9131 16.0642 11.8553C15.7331 11.7977 14.3446 11.5888 14.2349 11.5801C14.1312 11.5719 14.1146 11.5766 14.0109 11.6435ZM10.86 11.8438C10.8338 11.8748 10.4363 12.6922 10.4363 12.7152C10.4363 12.7556 10.6694 12.6768 10.9403 12.5446C11.1029 12.4653 11.5186 12.2822 11.5796 12.2631C11.6511 12.2406 11.6018 12.1961 11.3672 12.0714C11.2324 11.9997 11.0833 11.9172 11.0359 11.8882C10.9115 11.8119 10.8913 11.8068 10.86 11.8438ZM12.1381 12.6186C12.0833 12.6452 12.0119 12.6798 11.9794 12.6955C11.8677 12.7492 11.4721 12.9258 11.3136 12.9926C11.2263 13.0295 11.1297 13.0716 11.099 13.0862C10.9724 13.1465 10.673 13.2744 10.4363 13.3694C10.0373 13.5295 10.0757 13.499 9.9619 13.7471C9.75407 14.2005 9.67099 14.3893 9.67099 14.4083C9.67099 14.4192 9.65419 14.4503 9.63365 14.4776C9.61312 14.5049 9.59632 14.5379 9.59632 14.551C9.59632 14.564 9.53848 14.7012 9.46775 14.8558C9.39704 15.0105 9.27832 15.2863 9.20396 15.4689C9.12957 15.6514 9.03977 15.871 9.0044 15.9569C8.96903 16.0428 8.91939 16.1702 8.8941 16.24C8.86879 16.3098 8.83226 16.4021 8.8129 16.445C8.76207 16.5578 8.6932 16.7319 8.6198 16.9331C8.58454 17.0297 8.53911 17.1483 8.51884 17.1966C8.48574 17.2755 8.46299 17.3382 8.38433 17.5676C8.37143 17.6052 8.34419 17.6798 8.32381 17.7335C8.25648 17.9107 8.13715 18.2591 8.11197 18.3519C8.09836 18.402 8.07811 18.4609 8.06695 18.4827C8.04438 18.5268 8.06169 18.4598 8.02301 18.5961C8.00931 18.6444 7.96922 18.7718 7.93394 18.8792C7.85319 19.1249 7.80212 19.1796 7.7017 19.5249C7.6354 19.7529 7.47292 20.2844 7.24219 21.0282C7.14754 21.3333 7.09716 21.6468 7.07746 22.0531C7.06053 22.4024 7.05491 22.3961 7.32137 22.3274C7.92004 22.1731 8.22185 22.0559 8.79462 21.7553C8.90755 21.6961 9.04421 21.618 9.0983 21.5819C9.15242 21.5458 9.20001 21.5163 9.20412 21.5163C9.21039 21.5163 9.5221 21.2983 9.65075 21.2039C9.73107 21.145 9.97378 20.9522 10.0919 20.8535C10.2335 20.7352 10.6561 20.3033 10.7137 20.218C10.7354 20.1858 10.806 20.0923 10.8706 20.0102C10.9351 19.9282 10.9879 19.8551 10.9879 19.8479C10.9879 19.8406 11.0077 19.8067 11.032 19.7725C11.3024 19.3914 11.5072 18.9519 11.6174 18.5535C11.8095 17.8593 12.024 16.9164 12.106 16.406C12.1233 16.2986 12.1499 16.1518 12.1652 16.0797C12.1805 16.0076 12.1999 15.889 12.2084 15.8161C12.2168 15.7433 12.2369 15.6133 12.253 15.5274C12.2854 15.3547 12.3517 14.8895 12.3697 14.7082C12.3761 14.6441 12.3835 14.5782 12.3863 14.5617C12.418 14.372 12.438 14.2267 12.471 13.9461C12.4925 13.7636 12.5229 13.5219 12.5385 13.4092C12.5703 13.1794 12.5749 13.2036 12.4398 12.8919C12.3932 12.7845 12.3435 12.6681 12.3293 12.6332C12.2982 12.5566 12.2699 12.5544 12.1381 12.6186ZM13.1802 13.1916C13.1802 13.2384 13.8485 14.5751 13.9723 14.7758C14.28 15.2749 14.4173 15.4763 14.6906 15.83C14.8775 16.072 15.5636 16.7963 15.8016 17.003C16.1264 17.285 16.2713 17.4048 16.4305 17.5227C16.5191 17.5883 16.6073 17.6555 16.6265 17.6721C16.7173 17.7505 17.2275 18.1103 17.3335 18.1707C17.3745 18.1941 17.4753 18.2574 17.5574 18.3113C17.7211 18.4187 18.2363 18.696 18.3181 18.7207C18.355 18.7319 18.3694 18.7292 18.3694 18.7113C18.3694 18.6821 18.025 18.1364 17.9395 18.03C17.9292 18.0173 17.8358 17.897 17.732 17.7628C17.5691 17.5523 17.3949 17.3399 17.2588 17.1859C17.2383 17.1627 17.1627 17.0744 17.0908 16.9897C16.7467 16.5841 15.7346 15.5398 15.021 14.8539C14.859 14.6982 14.6831 14.5281 14.63 14.476C14.5769 14.4239 14.4579 14.3149 14.3655 14.2338C14.2731 14.1527 14.1555 14.0451 14.1042 13.9947C13.9555 13.8487 13.7971 13.7002 13.6562 13.5748C13.5844 13.5108 13.4878 13.4217 13.4416 13.3768C13.2723 13.2124 13.1802 13.1471 13.1802 13.1916Z" fill="white"/>
</svg>
